<svg height="512pt" viewBox="0 -32 512 512" width="512pt" xmlns="http://www.w3.org/2000/svg">
<path d="m62.640625 137.230469c2.804687-46.371094 41.292969-83.113281 88.371094-83.113281 37.964843 0 70.347656 23.902343 82.929687 57.476562 32.695313.394531 59.082032 27.003906 59.082032 59.792969 0 33.035156-26.78125 59.816406-59.816407 59.816406-13.828125 0-154.71875 0-168.925781 0-25.960938 0-47.007812-21.046875-47.007812-47.007813 0-25.410156 20.167968-46.097656 45.367187-46.964843zm0 0" fill="#f0f5f7"/>
<path d="m460.949219 249.117188c-3.160157-52.179688-46.46875-93.523438-99.445313-93.523438-42.722656 0-79.160156 26.894531-93.320312 64.671875-36.792969.445313-66.484375 30.390625-66.484375 67.289063 0 37.175781 30.136719 67.308593 67.308593 67.308593h190.09375c29.214844 0 52.894532-23.683593 52.894532-52.894531 0-28.597656-22.691406-51.875-51.046875-52.851562zm0 0" fill="#c4e1e8"/>
<path d="m428.652344 193.21875c0 65.496094-53.09375 118.589844-118.589844 118.589844-65.5 0-118.59375-53.09375-118.59375-118.589844 0-65.5 53.09375-118.59375 118.59375-118.59375 65.496094 0 118.589844 53.09375 118.589844 118.59375zm0 0" fill="#f6cb43"/>
<g fill="#f8e98e">
<path d="m495.550781 200.945312h-25.542969c-4.265624 0-7.726562-3.460937-7.726562-7.726562 0-4.269531 3.460938-7.726562 7.726562-7.726562h25.542969c4.269531 0 7.726563 3.457031 7.726563 7.726562 0 4.265625-3.457032 7.726562-7.726563 7.726562zm0 0"/>
<path d="m448.585938 120.972656c-2.667969 0-5.265626-1.386718-6.695313-3.867187-2.136719-3.695313-.871094-8.421875 2.828125-10.554688l22.121094-12.769531c3.695312-2.132812 8.417968-.871094 10.550781 2.828125 2.136719 3.695313.871094 8.417969-2.828125 10.550781l-22.121094 12.773438c-1.214844.703125-2.542968 1.039062-3.855468 1.039062zm0 0"/>
<path d="m390.027344 62.425781c-1.308594 0-2.636719-.332031-3.855469-1.035156-3.695313-2.136719-4.960937-6.859375-2.828125-10.554687l12.773438-22.121094c2.132812-3.695313 6.855468-4.964844 10.554687-2.828125 3.695313 2.132812 4.960937 6.859375 2.824219 10.554687l-12.769532 22.121094c-1.429687 2.476562-4.027343 3.863281-6.699218 3.863281zm0 0"/>
<path d="m310.0625 40.996094c-4.269531 0-7.726562-3.460938-7.726562-7.726563v-25.542969c0-4.265624 3.457031-7.726562 7.726562-7.726562 4.265625 0 7.722656 3.460938 7.722656 7.726562v25.542969c.003906 4.265625-3.457031 7.726563-7.722656 7.726563zm0 0"/>
<path d="m230.09375 62.425781c-2.667969 0-5.265625-1.386719-6.695312-3.863281l-12.773438-22.121094c-2.132812-3.695312-.867188-8.421875 2.828125-10.554687 3.695313-2.132813 8.421875-.867188 10.554687 2.828125l12.769532 22.121094c2.136718 3.695312.871094 8.421874-2.828125 10.554687-1.214844.703125-2.542969 1.035156-3.855469 1.035156zm0 0"/>
</g>
<path d="m259.25 249.117188c-3.160156-52.179688-46.46875-93.523438-99.445312-93.523438-42.722657 0-79.160157 26.894531-93.320313 64.671875-36.792969.445313-66.484375 30.390625-66.484375 67.289063 0 37.171874 30.136719 67.308593 67.308594 67.308593h190.09375c29.214844 0 52.898437-23.683593 52.898437-52.898437-.003906-28.59375-22.695312-51.871094-51.050781-52.847656zm0 0" fill="#c4e1e8"/>
<path d="m418.566406 342.792969c-3.15625-52.179688-46.46875-93.523438-99.441406-93.523438-42.726562 0-79.164062 26.894531-93.324219 64.671875-36.789062.445313-66.480469 30.394532-66.480469 67.289063 0 37.175781 30.132813 67.308593 67.308594 67.308593h190.09375c29.210938 0 52.894532-23.683593 52.894532-52.894531 0-28.597656-22.691407-51.875-51.050782-52.851562zm0 0" fill="#f0f5f7"/>
<path d="m392.191406 336.9375c-3.488281 0-6.652344-2.382812-7.503906-5.921875-.894531-3.71875-2.117188-7.386719-3.636719-10.898437-1.695312-3.917969.105469-8.464844 4.023438-10.160157 3.917969-1.695312 8.464843.109375 10.160156 4.023438 1.871094 4.328125 3.375 8.84375 4.476563 13.421875 1 4.152344-1.558594 8.320312-5.707032 9.320312-.605468.144532-1.214844.214844-1.8125.214844zm0 0" fill="#f0f5f7"/>
</svg>